<svg width="256" height="256" viewBox="0 0 256 256" fill="none" xmlns="http://www.w3.org/2000/svg">
<path fill-rule="evenodd" clip-rule="evenodd" d="M128.402 91.8492C129.891 91.8492 131.098 93.0562 131.098 94.545V98.7754C131.098 100.264 129.891 101.471 128.402 101.471C126.914 101.471 125.707 100.264 125.707 98.7754V94.545C125.707 93.0562 126.914 91.8492 128.402 91.8492ZM128.402 113.001C129.891 113.001 131.098 114.208 131.098 115.697V124.158C131.098 125.646 129.891 126.853 128.402 126.853C126.914 126.853 125.707 125.646 125.707 124.158V115.697C125.707 114.208 126.914 113.001 128.402 113.001ZM128.402 138.383C129.891 138.383 131.098 139.59 131.098 141.079V145.309C131.098 146.798 129.891 148.005 128.402 148.005C126.914 148.005 125.707 146.798 125.707 145.309V141.079C125.707 139.59 126.914 138.383 128.402 138.383Z" fill="#7AD1FF"/>
<path fill-rule="evenodd" clip-rule="evenodd" d="M208.06 91.0434C209.549 91.0434 210.755 92.2503 210.755 93.7392V97.2309C210.755 98.7197 209.549 99.9267 208.06 99.9267C206.571 99.9267 205.364 98.7197 205.364 97.2309V93.7392C205.364 92.2503 206.571 91.0434 208.06 91.0434ZM208.06 108.502C209.549 108.502 210.755 109.709 210.755 111.198V118.181C210.755 119.67 209.549 120.877 208.06 120.877C206.571 120.877 205.364 119.67 205.364 118.181V111.198C205.364 109.709 206.571 108.502 208.06 108.502ZM208.06 129.452C209.549 129.452 210.755 130.659 210.755 132.148V135.64C210.755 136.756 210.685 137.853 210.548 138.927C210.36 140.404 209.01 141.449 207.533 141.261C206.056 141.073 205.012 139.723 205.2 138.246C205.308 137.399 205.364 136.529 205.364 135.64V132.148C205.364 130.659 206.571 129.452 208.06 129.452ZM205.075 147.243C206.256 148.151 206.476 149.843 205.569 151.023C204.218 152.779 202.646 154.342 200.901 155.678C199.719 156.584 198.027 156.359 197.122 155.177C196.217 153.995 196.441 152.303 197.623 151.398C198.998 150.345 200.235 149.115 201.295 147.736C202.203 146.556 203.895 146.335 205.075 147.243ZM191.148 157.656C191.343 159.132 190.304 160.487 188.828 160.681C187.744 160.824 186.643 160.898 185.53 160.898H180.3C178.812 160.898 177.605 159.691 177.605 158.202C177.605 156.713 178.812 155.506 180.3 155.506H185.53C186.406 155.506 187.272 155.448 188.123 155.336C189.599 155.141 190.953 156.18 191.148 157.656ZM151.454 158.202C151.454 156.713 152.661 155.506 154.15 155.506H159.38C160.869 155.506 162.076 156.713 162.076 158.202C162.076 159.691 160.869 160.898 159.38 160.898H154.15C152.661 160.898 151.454 159.691 151.454 158.202Z" fill="#7AD1FF"/>
<path fill-rule="evenodd" clip-rule="evenodd" d="M47.9407 91.0434C49.4295 91.0434 50.6364 92.2503 50.6364 93.7392V97.2309C50.6364 98.7197 49.4295 99.9267 47.9407 99.9267C46.4518 99.9267 45.2449 98.7197 45.2449 97.2309V93.7392C45.2449 92.2503 46.4518 91.0434 47.9407 91.0434ZM47.9407 108.502C49.4295 108.502 50.6364 109.709 50.6364 111.198V118.181C50.6364 119.67 49.4295 120.877 47.9407 120.877C46.4518 120.877 45.2449 119.67 45.2449 118.181V111.198C45.2449 109.709 46.4518 108.502 47.9407 108.502ZM47.9407 129.452C49.4295 129.452 50.6364 130.659 50.6364 132.148V135.64C50.6364 136.529 50.6926 137.399 50.8005 138.246C50.9887 139.723 49.9439 141.073 48.467 141.261C46.9901 141.449 45.6403 140.404 45.4522 138.927C45.3153 137.853 45.2449 136.756 45.2449 135.64V132.148C45.2449 130.659 46.4518 129.452 47.9407 129.452ZM50.925 147.243C52.1051 146.335 53.7976 146.556 54.7053 147.736C55.7656 149.115 57.0022 150.345 58.3769 151.398C59.559 152.303 59.7836 153.995 58.8784 155.177C57.9733 156.359 56.2812 156.584 55.0991 155.678C53.3542 154.342 51.7819 152.779 50.4316 151.023C49.5239 149.843 49.7448 148.151 50.925 147.243ZM64.8522 157.656C65.047 156.18 66.4014 155.141 67.8775 155.336C68.7288 155.448 69.5944 155.506 70.47 155.506H75.8341C77.3229 155.506 78.5299 156.713 78.5299 158.202C78.5299 159.691 77.3229 160.898 75.8341 160.898H70.47C69.357 160.898 68.2559 160.824 67.1723 160.681C65.6962 160.487 64.6575 159.132 64.8522 157.656ZM94.5948 158.202C94.5948 156.713 95.8017 155.506 97.2906 155.506H102.655C104.144 155.506 105.35 156.713 105.35 158.202C105.35 159.691 104.144 160.898 102.655 160.898H97.2906C95.8017 160.898 94.5948 159.691 94.5948 158.202Z" fill="#7AD1FF"/>
<path fill-rule="evenodd" clip-rule="evenodd" d="M113.386 31.0804C109.841 34.6301 107.703 39.8013 107.703 46.2588C107.703 48.0042 108.582 51.0229 110.324 55.0704C112.015 58.9967 114.35 63.5227 116.901 68.1246C120.514 74.6408 124.468 81.148 127.547 86.2172C127.927 86.8426 128.294 87.4461 128.645 88.025C131.95 82.9152 136.431 75.5853 140.398 68.2821C142.906 63.6657 145.182 59.1072 146.824 55.1538C148.515 51.084 149.37 48.0267 149.37 46.2588C149.37 39.8013 147.232 34.6301 143.687 31.0804C140.143 27.5311 134.981 25.3916 128.537 25.3916C122.092 25.3916 116.93 27.5311 113.386 31.0804ZM109.571 27.2708C114.261 22.5731 120.864 20 128.537 20C136.209 20 142.812 22.5731 147.503 27.2708C152.193 31.9682 154.761 38.5784 154.761 46.2588C154.761 49.2035 153.497 53.1436 151.803 57.2218C150.061 61.4164 147.688 66.1567 145.136 70.8557C140.029 80.2562 134.1 89.6805 130.767 94.592C130.249 95.3561 129.375 95.8017 128.452 95.7729C127.529 95.744 126.685 95.2448 126.216 94.4498C125.374 93.0255 124.277 91.2203 123.019 89.1486C119.925 84.056 115.853 77.353 112.186 70.7389C109.598 66.0711 107.165 61.367 105.372 57.2023C103.632 53.159 102.312 49.226 102.312 46.2588C102.312 38.5784 104.88 31.9682 109.571 27.2708Z" fill="#018BFF"/>
<path fill-rule="evenodd" clip-rule="evenodd" d="M128.523 51.3631C131.35 51.3631 133.641 49.0718 133.641 46.2454C133.641 43.4189 131.35 41.1276 128.523 41.1276C125.697 41.1276 123.405 43.4189 123.405 46.2454C123.405 49.0718 125.697 51.3631 128.523 51.3631ZM128.523 56.7547C134.327 56.7547 139.033 52.0495 139.033 46.2454C139.033 40.4412 134.327 35.736 128.523 35.736C122.719 35.736 118.014 40.4412 118.014 46.2454C118.014 52.0495 122.719 56.7547 128.523 56.7547Z" fill="#018BFF"/>
<path fill-rule="evenodd" clip-rule="evenodd" d="M109.473 156.647C104.984 161.143 102.306 167.666 102.306 175.745C102.306 178.03 103.437 181.846 105.579 186.822C107.669 191.676 110.551 197.261 113.692 202.926C118.139 210.948 123.013 218.97 126.801 225.205C127.453 226.278 128.072 227.298 128.652 228.255C132.765 221.94 138.559 212.51 143.663 203.115C146.751 197.43 149.56 191.805 151.59 186.917C153.669 181.913 154.767 178.053 154.767 175.745C154.767 167.666 152.09 161.143 147.601 156.647C143.112 152.152 136.601 149.472 128.537 149.472C120.473 149.472 113.961 152.152 109.473 156.647ZM105.658 152.838C111.293 147.194 119.245 144.081 128.537 144.081C137.828 144.081 145.78 147.194 151.416 152.838C157.051 158.481 160.159 166.443 160.159 175.745C160.159 179.23 158.652 183.972 156.57 188.985C154.439 194.114 151.533 199.921 148.4 205.689C142.133 217.226 134.854 228.795 130.767 234.818C130.249 235.582 129.375 236.028 128.453 235.999C127.53 235.97 126.686 235.471 126.216 234.676C125.175 232.915 123.823 230.689 122.273 228.137C118.471 221.878 113.478 213.66 108.976 205.54C105.799 199.809 102.819 194.047 100.627 188.954C98.4866 183.983 96.9147 179.252 96.9147 175.745C96.9147 166.443 100.022 158.481 105.658 152.838Z" fill="#018BFF"/>
<path fill-rule="evenodd" clip-rule="evenodd" d="M128.52 183.257C132.678 183.257 136.049 179.886 136.049 175.728C136.049 171.57 132.678 168.199 128.52 168.199C124.362 168.199 120.992 171.57 120.992 175.728C120.992 179.886 124.362 183.257 128.52 183.257ZM128.52 188.648C135.656 188.648 141.44 182.864 141.44 175.728C141.44 168.592 135.656 162.808 128.52 162.808C121.385 162.808 115.6 168.592 115.6 175.728C115.6 182.864 121.385 188.648 128.52 188.648Z" fill="#018BFF"/>
<path fill-rule="evenodd" clip-rule="evenodd" d="M32.7894 31.0804C29.2449 34.6301 27.1072 39.8013 27.1072 46.2588C27.1072 48.0042 27.9857 51.0229 29.7282 55.0704C31.4184 58.9967 33.7536 63.5227 36.305 68.1246C39.9178 74.6408 43.8712 81.148 46.951 86.2172C47.3309 86.8426 47.6976 87.4461 48.0486 88.025C51.3533 82.9152 55.8346 75.5853 59.8018 68.2821C62.3095 63.6657 64.5859 59.1072 66.2279 55.1538C67.9182 51.084 68.7734 48.0267 68.7734 46.2588C68.7734 39.8013 66.6357 34.6301 63.0911 31.0804C59.5469 27.5311 54.3851 25.3916 47.9403 25.3916C41.4954 25.3916 36.3336 27.5311 32.7894 31.0804ZM28.9742 27.2708C33.6651 22.5731 40.2678 20 47.9403 20C55.6127 20 62.2154 22.5731 66.9063 27.2708C71.5969 31.9682 74.1649 38.5784 74.1649 46.2588C74.1649 49.2035 72.9009 53.1436 71.2071 57.2218C69.4649 61.4164 67.092 66.1567 64.5395 70.8557C59.433 80.2562 53.5037 89.6805 50.171 94.592C49.6525 95.3561 48.779 95.8017 47.8561 95.7729C46.9331 95.744 46.0891 95.2448 45.6194 94.4498C44.7778 93.0255 43.6811 91.2203 42.4226 89.1486C39.3288 84.056 35.2567 77.353 31.5897 70.7389C29.0017 66.0711 26.5689 61.367 24.776 57.2023C23.0353 53.159 21.7156 49.226 21.7156 46.2588C21.7156 38.5784 24.2836 31.9682 28.9742 27.2708Z" fill="#018BFF"/>
<path fill-rule="evenodd" clip-rule="evenodd" d="M47.927 51.3631C50.7535 51.3631 53.0448 49.0718 53.0448 46.2454C53.0448 43.4189 50.7535 41.1276 47.927 41.1276C45.1005 41.1276 42.8092 43.4189 42.8092 46.2454C42.8092 49.0718 45.1005 51.3631 47.927 51.3631ZM47.927 56.7547C53.7311 56.7547 58.4363 52.0495 58.4363 46.2454C58.4363 40.4412 53.7311 35.736 47.927 35.736C42.1228 35.736 37.4176 40.4412 37.4176 46.2454C37.4176 52.0495 42.1228 56.7547 47.927 56.7547Z" fill="#018BFF"/>
<path fill-rule="evenodd" clip-rule="evenodd" d="M192.909 31.0804C189.364 34.6301 187.227 39.8013 187.227 46.2588C187.227 48.0042 188.105 51.0229 189.848 55.0704C191.538 58.9967 193.873 63.5227 196.424 68.1246C200.037 74.6408 203.991 81.148 207.07 86.2172C207.45 86.8426 207.817 87.4461 208.168 88.025C211.473 82.9152 215.954 75.5853 219.921 68.2821C222.429 63.6657 224.705 59.1072 226.347 55.1538C228.038 51.084 228.893 48.0267 228.893 46.2588C228.893 39.8013 226.755 34.6301 223.211 31.0804C219.666 27.5311 214.505 25.3916 208.06 25.3916C201.615 25.3916 196.453 27.5311 192.909 31.0804ZM189.094 27.2708C193.785 22.5731 200.387 20 208.06 20C215.732 20 222.335 22.5731 227.026 27.2708C231.716 31.9682 234.284 38.5784 234.284 46.2588C234.284 49.2035 233.02 53.1436 231.326 57.2218C229.584 61.4164 227.211 66.1567 224.659 70.8557C219.552 80.2562 213.623 89.6805 210.29 94.592C209.772 95.3561 208.898 95.8017 207.975 95.7729C207.053 95.744 206.209 95.2448 205.739 94.4498C204.897 93.0255 203.8 91.2203 202.542 89.1486C199.448 84.056 195.376 77.353 191.709 70.7389C189.121 66.0711 186.688 61.367 184.895 57.2023C183.155 53.159 181.835 49.226 181.835 46.2588C181.835 38.5784 184.403 31.9682 189.094 27.2708Z" fill="#018BFF"/>
<path fill-rule="evenodd" clip-rule="evenodd" d="M208.046 51.3631C210.873 51.3631 213.164 49.0718 213.164 46.2454C213.164 43.4189 210.873 41.1276 208.046 41.1276C205.22 41.1276 202.929 43.4189 202.929 46.2454C202.929 49.0718 205.22 51.3631 208.046 51.3631ZM208.046 56.7547C213.85 56.7547 218.556 52.0495 218.556 46.2454C218.556 40.4412 213.85 35.736 208.046 35.736C202.242 35.736 197.537 40.4412 197.537 46.2454C197.537 52.0495 202.242 56.7547 208.046 56.7547Z" fill="#018BFF"/>
</svg>
