<svg width="256" height="256" viewBox="0 0 256 256" fill="none" xmlns="http://www.w3.org/2000/svg">
<path fill-rule="evenodd" clip-rule="evenodd" d="M165.031 81.131C166.192 82.1885 166.275 83.9864 165.217 85.1466L148.382 103.617C147.324 104.777 145.527 104.86 144.366 103.803C143.206 102.745 143.123 100.947 144.18 99.7871L161.016 81.3169C162.073 80.1567 163.871 80.0734 165.031 81.131Z" fill="#7AD1FF"/>
<path fill-rule="evenodd" clip-rule="evenodd" d="M151.143 44.5574C152.406 43.6248 154.185 43.8927 155.118 45.1556L166.683 60.8177C167.615 62.0806 167.348 63.8603 166.085 64.7928C164.822 65.7253 163.042 65.4575 162.109 64.1946L150.545 48.5325C149.612 47.2696 149.88 45.4899 151.143 44.5574Z" fill="#7AD1FF"/>
<path fill-rule="evenodd" clip-rule="evenodd" d="M203.931 43.9806C205.061 45.0707 205.093 46.8702 204.003 47.9999L185.631 67.0392C184.541 68.1689 182.742 68.2011 181.612 67.111C180.482 66.0209 180.45 64.2215 181.54 63.0917L199.912 44.0524C201.002 42.9227 202.801 42.8906 203.931 43.9806Z" fill="#7AD1FF"/>
<path fill-rule="evenodd" clip-rule="evenodd" d="M87.4383 95.19C88.3227 93.8929 90.0911 93.5583 91.3881 94.4427L109.401 106.724C110.698 107.609 111.033 109.377 110.148 110.674C109.264 111.971 107.495 112.306 106.198 111.421L88.1856 99.1398C86.8885 98.2554 86.554 96.487 87.4383 95.19Z" fill="#7AD1FF"/>
<path fill-rule="evenodd" clip-rule="evenodd" d="M47.99 91.4961C48.0595 89.9278 49.3871 88.7127 50.9555 88.7821L75.1752 89.8546C76.7436 89.924 77.9587 91.2517 77.8892 92.82C77.8198 94.3884 76.4921 95.6034 74.9238 95.534L50.704 94.4616C49.1357 94.3921 47.9206 93.0644 47.99 91.4961Z" fill="#7AD1FF"/>
<path fill-rule="evenodd" clip-rule="evenodd" d="M66.6819 55.8621C68.0907 55.1694 69.7943 55.7499 70.487 57.1587L82.5128 81.6161C83.2055 83.0249 82.625 84.7285 81.2162 85.4212C79.8074 86.1139 78.1039 85.5334 77.4112 84.1246L65.3853 59.6672C64.6926 58.2584 65.2731 56.5548 66.6819 55.8621Z" fill="#7AD1FF"/>
<path fill-rule="evenodd" clip-rule="evenodd" d="M110.083 135.216C111.018 136.477 110.753 138.258 109.492 139.192L84.2123 157.925C82.951 158.859 81.1708 158.595 80.2361 157.333C79.3015 156.072 79.5663 154.292 80.8276 153.357L106.107 134.625C107.368 133.69 109.148 133.955 110.083 135.216Z" fill="#7AD1FF"/>
<path fill-rule="evenodd" clip-rule="evenodd" d="M78.5283 168.861C78.9988 167.363 80.5943 166.531 82.092 167.001L105.376 174.315C106.874 174.786 107.706 176.382 107.236 177.879C106.765 179.377 105.17 180.21 103.672 179.739L80.3882 172.425C78.8905 171.954 78.0578 170.359 78.5283 168.861Z" fill="#7AD1FF"/>
<path fill-rule="evenodd" clip-rule="evenodd" d="M72.2563 172.82C73.6499 172.097 75.3656 172.64 76.0884 174.034L90.9145 202.618C91.6374 204.011 91.0936 205.727 89.7001 206.45C88.3065 207.172 86.5909 206.629 85.868 205.235L71.0419 176.652C70.319 175.258 70.8628 173.542 72.2563 172.82Z" fill="#7AD1FF"/>
<path fill-rule="evenodd" clip-rule="evenodd" d="M61.5626 169.481C63.1044 169.776 64.1151 171.265 63.8199 172.807L57.809 204.207C57.5139 205.749 56.0246 206.76 54.4828 206.464C52.9409 206.169 51.9303 204.68 52.2254 203.138L58.2363 171.738C58.5315 170.196 60.0207 169.186 61.5626 169.481Z" fill="#7AD1FF"/>
<path fill-rule="evenodd" clip-rule="evenodd" d="M60.5499 213.872C60.5499 212.302 61.8226 211.03 63.3924 211.03H82.3001C83.87 211.03 85.1426 212.302 85.1426 213.872C85.1426 215.442 83.87 216.715 82.3001 216.715H63.3924C61.8226 216.715 60.5499 215.442 60.5499 213.872Z" fill="#7AD1FF"/>
<path fill-rule="evenodd" clip-rule="evenodd" d="M148.417 138.123C149.555 137.042 151.355 137.088 152.436 138.226L167.992 154.601C169.074 155.739 169.027 157.539 167.889 158.62C166.751 159.701 164.952 159.655 163.871 158.517L148.314 142.142C147.233 141.003 147.279 139.204 148.417 138.123Z" fill="#7AD1FF"/>
<path fill-rule="evenodd" clip-rule="evenodd" d="M175.162 168.188C176.569 167.492 178.274 168.068 178.97 169.476L190.586 192.961C191.282 194.368 190.705 196.073 189.298 196.769C187.891 197.465 186.186 196.888 185.49 195.481L173.874 171.996C173.178 170.589 173.754 168.884 175.162 168.188Z" fill="#7AD1FF"/>
<path fill-rule="evenodd" clip-rule="evenodd" d="M177.945 161.479C178.392 159.974 179.975 159.117 181.479 159.565L206.708 167.065C208.213 167.513 209.07 169.095 208.623 170.6C208.175 172.105 206.593 172.962 205.088 172.515L179.859 165.014C178.355 164.567 177.497 162.984 177.945 161.479Z" fill="#7AD1FF"/>
<path fill-rule="evenodd" clip-rule="evenodd" d="M130.725 99.6335C117.825 99.6335 107.367 110.091 107.367 122.991C107.367 135.892 117.825 146.349 130.725 146.349C143.625 146.349 154.083 135.892 154.083 122.991C154.083 110.091 143.625 99.6335 130.725 99.6335ZM101.682 122.991C101.682 106.951 114.685 93.9485 130.725 93.9485C146.765 93.9485 159.768 106.951 159.768 122.991C159.768 139.031 146.765 152.034 130.725 152.034C114.685 152.034 101.682 139.031 101.682 122.991Z" fill="#018BFF"/>
<path fill-rule="evenodd" clip-rule="evenodd" d="M147.1 34.9495C144.148 34.9495 141.755 37.3426 141.755 40.2946C141.755 43.2467 144.148 45.6398 147.1 45.6398C150.052 45.6398 152.445 43.2467 152.445 40.2946C152.445 37.3426 150.052 34.9495 147.1 34.9495ZM136.07 40.2946C136.07 34.2029 141.008 29.2645 147.1 29.2645C153.191 29.2645 158.13 34.2029 158.13 40.2946C158.13 46.3864 153.191 51.3248 147.1 51.3248C141.008 51.3248 136.07 46.3864 136.07 40.2946Z" fill="#018BFF"/>
<path fill-rule="evenodd" clip-rule="evenodd" d="M208.507 34.9495C205.555 34.9495 203.162 37.3426 203.162 40.2946C203.162 43.2467 205.555 45.6398 208.507 45.6398C211.459 45.6398 213.852 43.2467 213.852 40.2946C213.852 37.3426 211.459 34.9495 208.507 34.9495ZM197.477 40.2946C197.477 34.2029 202.415 29.2645 208.507 29.2645C214.599 29.2645 219.537 34.2029 219.537 40.2946C219.537 46.3864 214.599 51.3248 208.507 51.3248C202.415 51.3248 197.477 46.3864 197.477 40.2946Z" fill="#018BFF"/>
<path fill-rule="evenodd" clip-rule="evenodd" d="M172.482 63.6064C166.817 63.6064 162.224 68.1989 162.224 73.8641C162.224 79.5293 166.817 84.1218 172.482 84.1218C178.147 84.1218 182.74 79.5293 182.74 73.8641C182.74 68.1989 178.147 63.6064 172.482 63.6064ZM156.539 73.8641C156.539 65.0592 163.677 57.9214 172.482 57.9214C181.287 57.9214 188.425 65.0592 188.425 73.8641C188.425 82.669 181.287 89.8068 172.482 89.8068C163.677 89.8068 156.539 82.669 156.539 73.8641Z" fill="#018BFF"/>
<path fill-rule="evenodd" clip-rule="evenodd" d="M61.9495 36.5852C56.2844 36.5852 51.6918 41.1777 51.6918 46.8429C51.6918 52.5081 56.2844 57.1006 61.9495 57.1006C67.6147 57.1006 72.2072 52.5081 72.2072 46.8429C72.2072 41.1777 67.6147 36.5852 61.9495 36.5852ZM46.0068 46.8429C46.0068 38.038 53.1446 30.9002 61.9495 30.9002C70.7544 30.9002 77.8922 38.038 77.8922 46.8429C77.8922 55.6478 70.7544 62.7856 61.9495 62.7856C53.1446 62.7856 46.0068 55.6478 46.0068 46.8429Z" fill="#018BFF"/>
<path fill-rule="evenodd" clip-rule="evenodd" d="M70.1353 152.031C64.4702 152.031 59.8776 156.624 59.8776 162.289C59.8776 167.954 64.4702 172.546 70.1353 172.546C75.8005 172.546 80.393 167.954 80.393 162.289C80.393 156.624 75.8005 152.031 70.1353 152.031ZM54.1926 162.289C54.1926 153.484 61.3304 146.346 70.1353 146.346C78.9402 146.346 86.078 153.484 86.078 162.289C86.078 171.094 78.9402 178.231 70.1353 178.231C61.3304 178.231 54.1926 171.094 54.1926 162.289Z" fill="#018BFF"/>
<path fill-rule="evenodd" clip-rule="evenodd" d="M41.429 85.7144C38.477 85.7144 36.0839 88.1074 36.0839 91.0595C36.0839 94.0115 38.477 96.4046 41.429 96.4046C44.3811 96.4046 46.7742 94.0115 46.7742 91.0595C46.7742 88.1074 44.3811 85.7144 41.429 85.7144ZM30.3989 91.0595C30.3989 84.9677 35.3373 80.0294 41.429 80.0294C47.5208 80.0294 52.4592 84.9677 52.4592 91.0595C52.4592 97.1512 47.5208 102.09 41.429 102.09C35.3373 102.09 30.3989 97.1512 30.3989 91.0595Z" fill="#018BFF"/>
<path fill-rule="evenodd" clip-rule="evenodd" d="M83.2368 85.7144C80.2848 85.7144 77.8917 88.1074 77.8917 91.0595C77.8917 94.0115 80.2848 96.4046 83.2368 96.4046C86.1888 96.4046 88.5819 94.0115 88.5819 91.0595C88.5819 88.1074 86.1888 85.7144 83.2368 85.7144ZM72.2067 91.0595C72.2067 84.9677 77.145 80.0294 83.2368 80.0294C89.3286 80.0294 94.2669 84.9677 94.2669 91.0595C94.2669 97.1512 89.3286 102.09 83.2368 102.09C77.145 102.09 72.2067 97.1512 72.2067 91.0595Z" fill="#018BFF"/>
<path fill-rule="evenodd" clip-rule="evenodd" d="M112.712 173.32C109.76 173.32 107.367 175.713 107.367 178.665C107.367 181.617 109.76 184.01 112.712 184.01C115.664 184.01 118.057 181.617 118.057 178.665C118.057 175.713 115.664 173.32 112.712 173.32ZM101.682 178.665C101.682 172.573 106.62 167.635 112.712 167.635C118.804 167.635 123.742 172.573 123.742 178.665C123.742 184.757 118.804 189.695 112.712 189.695C106.62 189.695 101.682 184.757 101.682 178.665Z" fill="#018BFF"/>
<path fill-rule="evenodd" clip-rule="evenodd" d="M172.482 156.946C169.53 156.946 167.136 159.339 167.136 162.291C167.136 165.243 169.53 167.636 172.482 167.636C175.434 167.636 177.827 165.243 177.827 162.291C177.827 159.339 175.434 156.946 172.482 156.946ZM161.451 162.291C161.451 156.2 166.39 151.261 172.482 151.261C178.573 151.261 183.512 156.2 183.512 162.291C183.512 168.383 178.573 173.321 172.482 173.321C166.39 173.321 161.451 168.383 161.451 162.291Z" fill="#018BFF"/>
<path fill-rule="evenodd" clip-rule="evenodd" d="M214.571 165.132C211.619 165.132 209.226 167.525 209.226 170.477C209.226 173.429 211.619 175.822 214.571 175.822C217.523 175.822 219.916 173.429 219.916 170.477C219.916 167.525 217.523 165.132 214.571 165.132ZM203.541 170.477C203.541 164.386 208.479 159.447 214.571 159.447C220.663 159.447 225.601 164.386 225.601 170.477C225.601 176.569 220.663 181.507 214.571 181.507C208.479 181.507 203.541 176.569 203.541 170.477Z" fill="#018BFF"/>
<path fill-rule="evenodd" clip-rule="evenodd" d="M193.77 195.426C190.818 195.426 188.424 197.819 188.424 200.771C188.424 203.723 190.818 206.116 193.77 206.116C196.722 206.116 199.115 203.723 199.115 200.771C199.115 197.819 196.722 195.426 193.77 195.426ZM182.74 200.771C182.74 194.679 187.678 189.741 193.77 189.741C199.861 189.741 204.8 194.679 204.8 200.771C204.8 206.863 199.861 211.801 193.77 211.801C187.678 211.801 182.74 206.863 182.74 200.771Z" fill="#018BFF"/>
<path fill-rule="evenodd" clip-rule="evenodd" d="M90.7079 206.889C87.7558 206.889 85.3627 209.282 85.3627 212.234C85.3627 215.186 87.7558 217.58 90.7079 217.58C93.6599 217.58 96.053 215.186 96.053 212.234C96.053 209.282 93.6599 206.889 90.7079 206.889ZM79.6777 212.234C79.6777 206.143 84.6161 201.204 90.7079 201.204C96.7996 201.204 101.738 206.143 101.738 212.234C101.738 218.326 96.7996 223.265 90.7079 223.265C84.6161 223.265 79.6777 218.326 79.6777 212.234Z" fill="#018BFF"/>
<path fill-rule="evenodd" clip-rule="evenodd" d="M55.0833 206.889C52.1313 206.889 49.7382 209.282 49.7382 212.234C49.7382 215.186 52.1313 217.58 55.0833 217.58C58.0354 217.58 60.4285 215.186 60.4285 212.234C60.4285 209.282 58.0354 206.889 55.0833 206.889ZM44.0532 212.234C44.0532 206.143 48.9916 201.204 55.0833 201.204C61.1751 201.204 66.1135 206.143 66.1135 212.234C66.1135 218.326 61.1751 223.265 55.0833 223.265C48.9916 223.265 44.0532 218.326 44.0532 212.234Z" fill="#018BFF"/>
</svg>
