<svg width="256" height="256" viewBox="0 0 256 256" fill="none" xmlns="http://www.w3.org/2000/svg">
<path fill-rule="evenodd" clip-rule="evenodd" d="M140.568 41.3506C141.815 40.3952 143.6 40.6313 144.555 41.8779L201.746 116.505C202.701 117.752 202.465 119.537 201.219 120.492C199.972 121.448 198.187 121.211 197.232 119.965L140.041 45.3376C139.085 44.091 139.321 42.3059 140.568 41.3506Z" fill="#7AD1FF"/>
<path fill-rule="evenodd" clip-rule="evenodd" d="M201.219 135.507C202.465 136.463 202.701 138.248 201.746 139.494L144.555 214.122C143.6 215.368 141.815 215.604 140.568 214.649C139.321 213.694 139.085 211.909 140.041 210.662L197.232 136.035C198.187 134.788 199.972 134.552 201.219 135.507Z" fill="#7AD1FF"/>
<path fill-rule="evenodd" clip-rule="evenodd" d="M139.454 128.001C139.454 126.43 140.727 125.157 142.298 125.157H189.724C191.295 125.157 192.568 126.43 192.568 128.001C192.568 129.571 191.295 130.844 189.724 130.844H142.298C140.727 130.844 139.454 129.571 139.454 128.001Z" fill="#7AD1FF"/>
<path fill-rule="evenodd" clip-rule="evenodd" d="M140.003 83.7738C140.931 82.5067 142.711 82.2318 143.978 83.1598L193.497 119.427C194.764 120.355 195.039 122.135 194.111 123.402C193.183 124.669 191.403 124.944 190.136 124.016L140.617 87.7485C139.35 86.8204 139.075 85.0409 140.003 83.7738Z" fill="#7AD1FF"/>
<path fill-rule="evenodd" clip-rule="evenodd" d="M194.126 132.618C195.042 133.894 194.751 135.671 193.476 136.587L143.957 172.157C142.681 173.073 140.904 172.782 139.988 171.506C139.071 170.231 139.363 168.454 140.638 167.537L190.157 131.967C191.433 131.051 193.21 131.342 194.126 132.618Z" fill="#7AD1FF"/>
<path fill-rule="evenodd" clip-rule="evenodd" d="M128.46 49.5648C129.792 50.3965 130.198 52.1508 129.366 53.4831L61.0159 162.983C60.1843 164.315 58.43 164.721 57.0976 163.889C55.7653 163.058 55.3594 161.304 56.1911 159.971L124.541 50.4714C125.373 49.1391 127.127 48.7332 128.46 49.5648Z" fill="#7AD1FF"/>
<path fill-rule="evenodd" clip-rule="evenodd" d="M130.285 92.439C131.435 93.5086 131.501 95.308 130.431 96.4582L65.568 166.203C64.4984 167.353 62.699 167.419 61.5489 166.349C60.3988 165.279 60.3335 163.48 61.4031 162.33L126.266 92.5848C127.336 91.4347 129.135 91.3694 130.285 92.439Z" fill="#7AD1FF"/>
<path fill-rule="evenodd" clip-rule="evenodd" d="M129.468 135.039C130.202 136.428 129.672 138.148 128.283 138.882L67.6051 170.965C66.2166 171.699 64.4959 171.169 63.7618 169.78C63.0276 168.392 63.5581 166.671 64.9465 165.937L125.625 133.854C127.013 133.12 128.734 133.651 129.468 135.039Z" fill="#7AD1FF"/>
<path fill-rule="evenodd" clip-rule="evenodd" d="M63.4319 171.241C63.4319 169.671 64.7051 168.397 66.2757 168.397H122.769C124.34 168.397 125.613 169.671 125.613 171.241C125.613 172.812 124.34 174.085 122.769 174.085H66.2757C64.7051 174.085 63.4319 172.812 63.4319 171.241Z" fill="#7AD1FF"/>
<path fill-rule="evenodd" clip-rule="evenodd" d="M63.0837 173.363C63.8381 171.986 65.5664 171.48 66.944 172.235L125.53 204.318C126.907 205.072 127.413 206.8 126.658 208.178C125.904 209.555 124.176 210.061 122.798 209.306L64.2121 177.223C62.8345 176.469 62.3293 174.741 63.0837 173.363Z" fill="#7AD1FF"/>
<path fill-rule="evenodd" clip-rule="evenodd" d="M125.295 42.3025C126.017 43.6977 125.47 45.4134 124.075 46.1346L62.0018 78.2173C60.6065 78.9385 58.8908 78.392 58.1696 76.9967C57.4485 75.6015 57.995 73.8858 59.3902 73.1646L121.463 41.0819C122.859 40.3607 124.574 40.9072 125.295 42.3025Z" fill="#7AD1FF"/>
<path fill-rule="evenodd" clip-rule="evenodd" d="M63.4319 85.4539C63.4319 83.8833 64.7051 82.6101 66.2757 82.6101H122.769C124.34 82.6101 125.613 83.8833 125.613 85.4539C125.613 87.0246 124.34 88.2978 122.769 88.2978H66.2757C64.7051 88.2978 63.4319 87.0246 63.4319 85.4539Z" fill="#7AD1FF"/>
<path fill-rule="evenodd" clip-rule="evenodd" d="M63.2165 88.0557C64.0914 86.7513 65.858 86.4031 67.1624 87.278L124.353 125.638C125.658 126.513 126.006 128.279 125.131 129.584C124.256 130.888 122.489 131.236 121.185 130.361L63.9941 92.0016C62.6898 91.1267 62.3416 89.36 63.2165 88.0557Z" fill="#7AD1FF"/>
<path fill-rule="evenodd" clip-rule="evenodd" d="M60.1991 91.702C61.3717 90.6571 63.1694 90.7606 64.2143 91.9332L126.985 162.376C128.03 163.548 127.926 165.346 126.754 166.391C125.581 167.436 123.783 167.332 122.738 166.16L59.9679 95.7171C58.923 94.5445 59.0265 92.7469 60.1991 91.702Z" fill="#7AD1FF"/>
<path fill-rule="evenodd" clip-rule="evenodd" d="M54.9301 93.5524C56.2356 92.6793 58.0018 93.0297 58.875 94.3353L130.712 201.743C131.586 203.048 131.235 204.814 129.93 205.688C128.624 206.561 126.858 206.21 125.985 204.905L54.1473 97.4973C53.2741 96.1918 53.6246 94.4256 54.9301 93.5524Z" fill="#7AD1FF"/>
<path fill-rule="evenodd" clip-rule="evenodd" d="M56.5109 78.534C52.6888 78.534 49.5904 81.6324 49.5904 85.4545C49.5904 89.2765 52.6888 92.3749 56.5109 92.3749C60.3329 92.3749 63.4313 89.2765 63.4313 85.4545C63.4313 81.6324 60.3329 78.534 56.5109 78.534ZM43.9027 85.4545C43.9027 78.4912 49.5476 72.8463 56.5109 72.8463C63.4742 72.8463 69.119 78.4912 69.119 85.4545C69.119 92.4178 63.4742 98.0626 56.5109 98.0626C49.5476 98.0626 43.9027 92.4178 43.9027 85.4545Z" fill="#018BFF"/>
<path fill-rule="evenodd" clip-rule="evenodd" d="M199.489 121.081C195.667 121.081 192.569 124.179 192.569 128.001C192.569 131.823 195.667 134.921 199.489 134.921C203.311 134.921 206.409 131.823 206.409 128.001C206.409 124.179 203.311 121.081 199.489 121.081ZM186.881 128.001C186.881 121.038 192.526 115.393 199.489 115.393C206.452 115.393 212.097 121.038 212.097 128.001C212.097 134.964 206.452 140.609 199.489 140.609C192.526 140.609 186.881 134.964 186.881 128.001Z" fill="#018BFF"/>
<path fill-rule="evenodd" clip-rule="evenodd" d="M132.533 36.6877C128.711 36.6877 125.613 39.7861 125.613 43.6082C125.613 47.4302 128.711 50.5286 132.533 50.5286C136.356 50.5286 139.454 47.4302 139.454 43.6082C139.454 39.7861 136.356 36.6877 132.533 36.6877ZM119.925 43.6082C119.925 36.6449 125.57 31 132.533 31C139.497 31 145.142 36.6449 145.142 43.6082C145.142 50.5714 139.497 56.2163 132.533 56.2163C125.57 56.2163 119.925 50.5714 119.925 43.6082Z" fill="#018BFF"/>
<path fill-rule="evenodd" clip-rule="evenodd" d="M132.533 78.534C128.711 78.534 125.613 81.6324 125.613 85.4545C125.613 89.2765 128.711 92.3749 132.533 92.3749C136.356 92.3749 139.454 89.2765 139.454 85.4545C139.454 81.6324 136.356 78.534 132.533 78.534ZM119.925 85.4545C119.925 78.4912 125.57 72.8463 132.533 72.8463C139.497 72.8463 145.142 78.4912 145.142 85.4545C145.142 92.4178 139.497 98.0626 132.533 98.0626C125.57 98.0626 119.925 92.4178 119.925 85.4545Z" fill="#018BFF"/>
<path fill-rule="evenodd" clip-rule="evenodd" d="M132.533 121.081C128.711 121.081 125.613 124.179 125.613 128.001C125.613 131.823 128.711 134.921 132.533 134.921C136.356 134.921 139.454 131.823 139.454 128.001C139.454 124.179 136.356 121.081 132.533 121.081ZM119.925 128.001C119.925 121.038 125.57 115.393 132.533 115.393C139.497 115.393 145.142 121.038 145.142 128.001C145.142 134.964 139.497 140.609 132.533 140.609C125.57 140.609 119.925 134.964 119.925 128.001Z" fill="#018BFF"/>
<path fill-rule="evenodd" clip-rule="evenodd" d="M132.533 162.929C128.711 162.929 125.613 166.027 125.613 169.849C125.613 173.671 128.711 176.77 132.533 176.77C136.356 176.77 139.454 173.671 139.454 169.849C139.454 166.027 136.356 162.929 132.533 162.929ZM119.925 169.849C119.925 162.886 125.57 157.241 132.533 157.241C139.497 157.241 145.142 162.886 145.142 169.849C145.142 176.813 139.497 182.457 132.533 182.457C125.57 182.457 119.925 176.813 119.925 169.849Z" fill="#018BFF"/>
<path fill-rule="evenodd" clip-rule="evenodd" d="M132.533 205.471C128.711 205.471 125.613 208.57 125.613 212.392C125.613 216.214 128.711 219.312 132.533 219.312C136.356 219.312 139.454 216.214 139.454 212.392C139.454 208.57 136.356 205.471 132.533 205.471ZM119.925 212.392C119.925 205.429 125.57 199.784 132.533 199.784C139.497 199.784 145.142 205.429 145.142 212.392C145.142 219.355 139.497 225 132.533 225C125.57 225 119.925 219.355 119.925 212.392Z" fill="#018BFF"/>
<path fill-rule="evenodd" clip-rule="evenodd" d="M56.5109 164.321C52.6888 164.321 49.5904 167.42 49.5904 171.242C49.5904 175.064 52.6888 178.162 56.5109 178.162C60.3329 178.162 63.4313 175.064 63.4313 171.242C63.4313 167.42 60.3329 164.321 56.5109 164.321ZM43.9027 171.242C43.9027 164.279 49.5476 158.634 56.5109 158.634C63.4742 158.634 69.119 164.279 69.119 171.242C69.119 178.205 63.4742 183.85 56.5109 183.85C49.5476 183.85 43.9027 178.205 43.9027 171.242Z" fill="#018BFF"/>
</svg>
