<svg width="256" height="256" viewBox="0 0 256 256" fill="none" xmlns="http://www.w3.org/2000/svg">
<path fill-rule="evenodd" clip-rule="evenodd" d="M109.366 47.8265C92.8128 31.2737 66.1556 31.2737 49.6028 47.8265C33.0551 64.3742 33.05 91.0202 49.5878 107.574L81.9747 138.98C98.5275 155.532 125.184 155.533 141.737 138.98C147.272 133.446 150.931 127.029 152.765 119.694C153.144 118.178 154.679 117.257 156.194 117.636C157.71 118.015 158.631 119.55 158.252 121.065C156.162 129.425 151.974 136.742 145.737 142.979C126.98 161.736 96.7533 161.741 77.9905 142.995L45.603 111.589C26.8413 92.8273 26.8416 62.5886 45.6033 43.8269C64.365 25.0652 94.6034 25.0652 113.365 43.8269L145.737 76.1985C146.841 77.303 146.841 79.0936 145.737 80.1981C144.632 81.3026 142.842 81.3026 141.737 80.1981L109.366 47.8265Z" fill="#018BFF"/>
<path fill-rule="evenodd" clip-rule="evenodd" d="M175.089 112.568C158.537 96.0152 131.879 96.0152 115.327 112.568C109.792 118.102 106.133 124.519 104.299 131.854C103.92 133.37 102.385 134.291 100.869 133.912C99.3541 133.533 98.4328 131.998 98.8117 130.482C100.902 122.123 105.09 114.806 111.327 108.568C130.089 89.8068 160.327 89.8068 179.089 108.568L211.461 140.94C230.222 159.702 230.222 189.94 211.461 208.702C192.699 227.464 162.46 227.464 143.699 208.702L111.327 176.33C110.223 175.226 110.223 173.435 111.327 172.331C112.432 171.226 114.222 171.226 115.327 172.331L147.698 204.702C164.251 221.255 190.908 221.255 207.461 204.702C224.014 188.15 224.014 161.493 207.461 144.94L175.089 112.568Z" fill="#018BFF"/>
</svg>
