<?xml version="1.0" encoding="UTF-8"?>
<svg width="193px" height="65px" viewBox="0 0 193 65" version="1.1" xmlns="http://www.w3.org/2000/svg" xmlns:xlink="http://www.w3.org/1999/xlink">
    <title>Neo4j-logo</title>
    <g id="Page-1" stroke="none" stroke-width="1" fill="none" fill-rule="evenodd">
        <g id="Neo4j-logo" fill="currentColor" fill-rule="nonzero">
            <path d="M36.23,14 C25.65,14 18.55,20.16 18.55,32.11 L18.55,40.63 C19.6241778,40.1020224 20.8031379,39.8218057 22,39.81 C23.199141,39.8102723 24.3824449,40.0838686 25.46,40.61 L25.46,32.07 C25.46,24.32 29.74,20.34 36.26,20.34 C42.78,20.34 47,24.32 47,32.07 L47,50.69 L53.8900421,50.69 L53.8900421,32.07 C53.91,20.05 46.81,14 36.23,14 Z" id="Path"></path>
            <path d="M57.66,32.8 C57.66,21.93 65.66,13.96 76.93,13.96 C88.2,13.96 96.06,21.96 96.06,32.8 L96.06,35.33 L64.9,35.33 C65.9,41.71 70.7,45.26 76.9,45.26 C81.54,45.26 84.8,43.81 86.9,40.7 L94.5,40.7 C91.75,47.36 85.23,51.64 76.9,51.64 C65.63,51.64 57.66,43.67 57.66,32.8 Z M88.81,29.18 C87.43,23.45 82.73,20.34 76.93,20.34 C71.13,20.34 66.5,23.53 65.12,29.18 L88.81,29.18 Z" id="Shape"></path>
            <path d="M99.74,32.8 C99.74,21.94 107.74,13.97 119.01,13.97 C130.28,13.97 138.28,21.97 138.28,32.8 C138.28,43.63 130.28,51.64 119.01,51.64 C107.74,51.64 99.74,43.67 99.74,32.8 Z M131.33,32.8 C131.33,25.56 126.4,20.34 119.01,20.34 C111.62,20.34 106.7,25.56 106.7,32.8 C106.7,40.04 111.62,45.26 119,45.26 C126.38,45.26 131.33,40.05 131.33,32.8 L131.33,32.8 Z" id="Shape"></path>
            <path d="M176.64,57.82 L177.44,57.82 C181.86,57.82 183.52,55.82 183.52,50.82 L183.52,15.16 L190.41,15.16 L190.41,50.36 C190.41,59.2 186.93,63.76 178.09,63.76 L176.64,63.76 L176.64,57.82 Z" id="Path"></path>
            <path d="M173.2,58.14 L166.31,58.14 L166.31,49.65 L148.86,49.65 C145.611518,49.7632651 142.574347,48.0437468 141,45.2 C139.720232,42.5251932 140.085569,39.3537594 141.94,37.04 L157.6,16.49 C159.819942,13.4939876 163.70996,12.2577747 167.252186,13.422622 C170.794412,14.5874693 173.191496,17.8911718 173.2,21.62 L173.2,43.54 L178.37,43.54 L178.37,49.65 L173.2,49.65 L173.2,58.14 Z M147.67,40.8 C147.464075,41.0930118 147.352439,41.4418726 147.349971,41.8 C147.34732,42.2596409 147.528726,42.7012322 147.853747,43.0262529 C148.178768,43.3512736 148.620359,43.5326802 149.08,43.5300293 L166.31,43.5300293 L166.31,21.45 C166.336072,20.6861705 165.849211,19.9988375 165.12,19.77 C164.915027,19.7116935 164.7031,19.6814183 164.49,19.6799997 C163.942882,19.6796668 163.43209,19.953842 163.13,20.41 L147.67,40.8 Z" id="Shape"></path>
            <path d="M187,0.529991465 C184.612767,0.525953836 182.458346,1.9608745 181.541986,4.16523004 C180.625627,6.36958559 181.127934,8.90891923 182.814533,10.5983815 C184.501132,12.2878438 187.03961,12.7944583 189.245516,11.8818394 C191.451423,10.9692206 192.89,8.81723652 192.89,6.43 C192.89,3.17542123 190.254574,0.535516235 187,0.529991465 Z" id="Path"></path>
            <path d="M21.7,42 C20.4204002,42.0013738 19.1766682,42.4229779 18.16,43.2 L11.68,38.77 C11.8242164,38.2522457 11.8982117,37.7174613 11.9,37.18 C11.9283731,34.7924634 10.5125341,32.6240124 8.31522611,31.6896818 C6.11791809,30.7553511 3.57392997,31.24002 1.87408236,32.9168189 C0.174234741,34.5936177 -0.345117627,37.1307525 0.559129966,39.3406105 C1.46337756,41.5504685 3.61229851,42.9957776 6,43 C7.27996817,43.0008589 8.52439709,42.5790186 9.54,41.8 L16,46.26 C15.7065697,47.3030901 15.7065697,48.4069099 16,49.45 L9.52,53.88 C8.50983314,53.1051416 7.2731183,52.6835342 6,52.68 C3.61185757,52.6759557 1.45680471,54.1119602 0.541032972,56.3175446 C-0.374738768,58.5231291 0.129404323,61.0632474 1.81807845,62.7519215 C3.50675258,64.4405957 6.04687095,64.9447388 8.25245539,64.028967 C10.4580398,63.1131953 11.8940443,60.9581424 11.89,58.57 C11.8896904,58.0396858 11.8190752,57.5117532 11.68,57 L18.16,52.57 C19.1766682,53.3470221 20.4204002,53.7686262 21.7,53.77 C24.7874644,53.5494201 27.1795538,50.9803339 27.1795538,47.885 C27.1795538,44.7896661 24.7874644,42.2205799 21.7,42 L21.7,42 Z" id="Path"></path>
        </g>
    </g>
</svg>