<svg width="256" height="256" viewBox="0 0 256 256" fill="none" xmlns="http://www.w3.org/2000/svg">
<path d="M206.747 58.7654C208.244 58.7654 209.458 59.9791 209.458 61.4763V110.086L204.036 108.029V61.4763C204.036 59.9791 205.249 58.7654 206.747 58.7654Z" fill="#7AD1FF"/>
<path d="M114.995 206.254C89.3035 206.254 66.2472 204.179 49.5447 200.749C41.2162 199.039 34.3205 196.963 29.4409 194.559C27.0059 193.36 24.9316 192.011 23.4316 190.473C21.9197 188.922 20.8297 187 20.8297 184.751V64.493C20.8297 62.9958 22.0434 61.7821 23.5406 61.7821C25.0378 61.7821 26.2515 62.9958 26.2515 64.493V184.751C26.2515 185.134 26.4213 185.772 27.3139 186.688C28.2183 187.616 29.6931 188.64 31.8365 189.695C36.1139 191.802 42.493 193.766 50.6354 195.438C66.875 198.773 89.5458 200.832 114.995 200.832C124.194 200.832 133.039 200.563 141.356 200.062L146.078 205.185C136.374 205.879 125.916 206.254 114.995 206.254Z" fill="#7AD1FF"/>
<path fill-rule="evenodd" clip-rule="evenodd" d="M27.0246 59.6065C26.1074 60.5245 25.9536 61.1424 25.9536 61.4777C25.9536 61.813 26.1074 62.4309 27.0246 63.3489C27.9489 64.2741 29.4544 65.2968 31.6345 66.3525C35.9829 68.4581 42.4496 70.4282 50.6602 72.1098C67.0368 75.464 89.7839 77.5588 114.995 77.5588C140.205 77.5588 162.952 75.464 179.329 72.1098C187.54 70.4282 194.006 68.4581 198.355 66.3525C200.535 65.2968 202.04 64.2741 202.965 63.3489C203.882 62.4309 204.036 61.813 204.036 61.4777C204.036 61.1424 203.882 60.5245 202.965 59.6065C202.04 58.6813 200.535 57.6586 198.355 56.6029C194.006 54.4973 187.54 52.5272 179.329 50.8455C162.952 47.4914 140.205 45.3966 114.995 45.3966C89.7839 45.3966 67.0368 47.4914 50.6602 50.8455C42.4496 52.5272 35.9829 54.4973 31.6345 56.6029C29.4544 57.6586 27.9489 58.6813 27.0246 59.6065ZM49.5723 45.534C66.4033 42.0868 89.5322 39.9749 114.995 39.9749C140.457 39.9749 163.586 42.0868 180.417 45.534C188.81 47.2531 195.78 49.3323 200.718 51.7231C203.18 52.9157 205.28 54.253 206.8 55.7744C208.327 57.3031 209.457 59.2184 209.457 61.4777C209.457 63.737 208.327 65.6523 206.8 67.181C205.28 68.7024 203.18 70.0397 200.718 71.2322C195.78 73.6231 188.81 75.7023 180.417 77.4214C163.586 80.8686 140.457 82.9805 114.995 82.9805C89.5322 82.9805 66.4033 80.8686 49.5723 77.4214C41.1791 75.7023 34.209 73.6231 29.2716 71.2322C26.8088 70.0397 24.7092 68.7024 23.1891 67.181C21.6618 65.6523 20.5319 63.737 20.5319 61.4777C20.5319 59.2184 21.6618 57.3031 23.1891 55.7744C24.7092 54.253 26.8088 52.9157 29.2716 51.7231C34.209 49.3323 41.1791 47.2531 49.5723 45.534Z" fill="#7AD1FF"/>
<path d="M23.5406 116.646C25.0378 116.646 26.2515 117.86 26.2515 119.357C26.2515 119.739 26.4213 120.378 27.3139 121.293C28.2183 122.221 29.6931 123.245 31.8365 124.301C36.1139 126.407 42.493 128.371 50.6354 130.044C66.875 133.379 89.5458 135.438 114.995 135.438C118.43 135.438 121.817 135.4 125.144 135.327L123.571 140.782C120.748 140.833 117.888 140.86 114.995 140.86C89.3035 140.86 66.2472 138.785 49.5447 135.355C41.2162 133.644 34.3205 131.568 29.4409 129.165C27.0059 127.965 24.9316 126.617 23.4316 125.078C21.9197 123.527 20.8297 121.605 20.8297 119.357C20.8297 117.86 22.0434 116.646 23.5406 116.646Z" fill="#7AD1FF"/>
<path fill-rule="evenodd" clip-rule="evenodd" d="M177.416 103.273C147.76 103.273 123.722 127.301 123.722 156.938C123.722 186.575 147.76 210.603 177.416 210.603C207.072 210.603 231.11 186.575 231.11 156.938C231.11 127.301 207.072 103.273 177.416 103.273ZM118.3 156.938C118.3 124.304 144.769 97.8516 177.416 97.8516C210.064 97.8516 236.532 124.304 236.532 156.938C236.532 189.572 210.064 216.025 177.416 216.025C144.769 216.025 118.3 189.572 118.3 156.938Z" fill="#7AD1FF"/>
<path fill-rule="evenodd" clip-rule="evenodd" d="M150.342 131.086C144.361 131.086 139.516 135.931 139.516 141.905C139.516 147.879 144.361 152.724 150.342 152.724C156.322 152.724 161.168 147.879 161.168 141.905C161.168 135.931 156.322 131.086 150.342 131.086ZM134.094 141.905C134.094 132.934 141.37 125.664 150.342 125.664C159.314 125.664 166.59 132.934 166.59 141.905C166.59 150.876 159.314 158.146 150.342 158.146C141.37 158.146 134.094 150.876 134.094 141.905Z" fill="#0070D9"/>
<path fill-rule="evenodd" clip-rule="evenodd" d="M179.672 174.686C173.691 174.686 168.845 179.531 168.845 185.505C168.845 191.479 173.691 196.324 179.672 196.324C185.652 196.324 190.498 191.479 190.498 185.505C190.498 179.531 185.652 174.686 179.672 174.686ZM163.424 185.505C163.424 176.534 170.699 169.264 179.672 169.264C188.644 169.264 195.92 176.534 195.92 185.505C195.92 194.476 188.644 201.746 179.672 201.746C170.699 201.746 163.424 194.476 163.424 185.505Z" fill="#0070D9"/>
<path fill-rule="evenodd" clip-rule="evenodd" d="M206.746 142.362C200.765 142.362 195.92 147.207 195.92 153.181C195.92 159.155 200.765 164 206.746 164C212.726 164 217.572 159.155 217.572 153.181C217.572 147.207 212.726 142.362 206.746 142.362ZM190.498 153.181C190.498 144.21 197.774 136.94 206.746 136.94C215.718 136.94 222.994 144.21 222.994 153.181C222.994 162.152 215.718 169.422 206.746 169.422C197.774 169.422 190.498 162.152 190.498 153.181Z" fill="#0070D9"/>
<path fill-rule="evenodd" clip-rule="evenodd" d="M156.657 152.5C157.889 151.65 159.577 151.959 160.428 153.192L172.532 172.812C173.382 174.045 173.072 175.733 171.84 176.583C170.608 177.434 168.92 177.124 168.069 175.892L155.965 156.271C155.115 155.039 155.425 153.35 156.657 152.5Z" fill="#0070D9"/>
<path fill-rule="evenodd" clip-rule="evenodd" d="M199.616 162.205C200.813 163.103 201.055 164.802 200.157 166L191.618 177.358C190.719 178.555 189.02 178.798 187.822 177.899C186.625 177 186.382 175.301 187.281 174.104L195.82 162.746C196.719 161.548 198.418 161.306 199.616 162.205Z" fill="#0070D9"/>
</svg>
