<svg width="256" height="256" viewBox="0 0 256 256" fill="none" xmlns="http://www.w3.org/2000/svg">
<path fill-rule="evenodd" clip-rule="evenodd" d="M84.8613 67.3813C52.341 67.3813 25.9781 93.7442 25.9781 126.264C25.9781 158.785 52.341 185.148 84.8613 185.148C117.382 185.148 143.744 158.785 143.744 126.264C143.744 93.7442 117.382 67.3813 84.8613 67.3813ZM20.532 126.264C20.532 90.7364 49.3332 61.9352 84.8613 61.9352C120.389 61.9352 149.191 90.7364 149.191 126.264C149.191 161.793 120.389 190.594 84.8613 190.594C49.3332 190.594 20.532 161.793 20.532 126.264Z" fill="#8A8A8A"/>
<path fill-rule="evenodd" clip-rule="evenodd" d="M172.203 67.3812C139.683 67.3812 113.32 93.7441 113.32 126.264C113.32 158.785 139.683 185.147 172.203 185.147C204.723 185.147 231.086 158.785 231.086 126.264C231.086 93.7441 204.723 67.3812 172.203 67.3812ZM107.874 126.264C107.874 90.7363 136.675 61.9351 172.203 61.9351C207.731 61.9351 236.532 90.7363 236.532 126.264C236.532 161.792 207.731 190.594 172.203 190.594C136.675 190.594 107.874 161.792 107.874 126.264Z" fill="#8A8A8A"/>
<path fill-rule="evenodd" clip-rule="evenodd" d="M128.532 78.9832C115.709 91.1083 107.784 107.823 107.784 126.28C107.784 144.737 115.709 161.452 128.532 173.577C141.355 161.452 149.28 144.737 149.28 126.28C149.28 107.823 141.355 91.1083 128.532 78.9832Z" fill="#B5B5B5"/>
</svg>
