<svg width="256" height="256" viewBox="0 0 256 256" fill="none" xmlns="http://www.w3.org/2000/svg">
<path fill-rule="evenodd" clip-rule="evenodd" d="M82.4876 64.7709C69.8252 64.7709 59.5603 75.0358 59.5603 87.6982C59.5603 100.361 69.8252 110.626 82.4876 110.626C95.1501 110.626 105.415 100.361 105.415 87.6982C105.415 75.0358 95.1501 64.7709 82.4876 64.7709ZM54.165 87.6982C54.165 72.0561 66.8455 59.3756 82.4876 59.3756C98.1298 59.3756 110.81 72.0561 110.81 87.6982C110.81 103.34 98.1298 116.021 82.4876 116.021C66.8455 116.021 54.165 103.34 54.165 87.6982Z" fill="#018BFF"/>
<path fill-rule="evenodd" clip-rule="evenodd" d="M111.974 162.66C101.874 162.66 93.6855 170.848 93.6855 180.949C93.6855 191.049 101.874 199.237 111.974 199.237C122.075 199.237 130.263 191.049 130.263 180.949C130.263 170.848 122.075 162.66 111.974 162.66ZM88.2903 180.949C88.2903 167.868 98.894 157.264 111.974 157.264C125.055 157.264 135.659 167.868 135.659 180.949C135.659 194.029 125.055 204.633 111.974 204.633C98.894 204.633 88.2903 194.029 88.2903 180.949Z" fill="#018BFF"/>
<path fill-rule="evenodd" clip-rule="evenodd" d="M175.377 83.9892C162.715 83.9892 152.45 94.2541 152.45 106.917C152.45 119.579 162.715 129.844 175.377 129.844C188.04 129.844 198.304 119.579 198.304 106.917C198.304 94.2541 188.04 83.9892 175.377 83.9892ZM147.055 106.917C147.055 91.2744 159.735 78.5939 175.377 78.5939C191.019 78.5939 203.7 91.2744 203.7 106.917C203.7 122.559 191.019 135.239 175.377 135.239C159.735 135.239 147.055 122.559 147.055 106.917Z" fill="#018BFF"/>
<path fill-rule="evenodd" clip-rule="evenodd" d="M167.37 56.7625C164.437 56.7625 162.06 59.14 162.06 62.0727C162.06 65.0055 164.437 67.3829 167.37 67.3829C170.303 67.3829 172.68 65.0055 172.68 62.0727C172.68 59.14 170.303 56.7625 167.37 56.7625ZM156.664 62.0727C156.664 56.1603 161.457 51.3673 167.37 51.3673C173.282 51.3673 178.075 56.1603 178.075 62.0727C178.075 67.9852 173.282 72.7782 167.37 72.7782C161.457 72.7782 156.664 67.9852 156.664 62.0727Z" fill="#7AD1FF"/>
<path fill-rule="evenodd" clip-rule="evenodd" d="M111.988 131.835C110.58 131.835 109.439 132.977 109.439 134.384C109.439 135.792 110.58 136.933 111.988 136.933C113.396 136.933 114.537 135.792 114.537 134.384C114.537 132.977 113.396 131.835 111.988 131.835ZM104.043 134.384C104.043 129.997 107.6 126.44 111.988 126.44C116.375 126.44 119.932 129.997 119.932 134.384C119.932 138.772 116.375 142.329 111.988 142.329C107.6 142.329 104.043 138.772 104.043 134.384Z" fill="#7AD1FF"/>
<path fill-rule="evenodd" clip-rule="evenodd" d="M135.584 151.51C134.176 151.51 133.035 152.651 133.035 154.059C133.035 155.467 134.176 156.608 135.584 156.608C136.992 156.608 138.133 155.467 138.133 154.059C138.133 152.651 136.992 151.51 135.584 151.51ZM127.64 154.059C127.64 149.672 131.197 146.115 135.584 146.115C139.972 146.115 143.529 149.672 143.529 154.059C143.529 158.447 139.972 162.003 135.584 162.003C131.197 162.003 127.64 158.447 127.64 154.059Z" fill="#7AD1FF"/>
<path fill-rule="evenodd" clip-rule="evenodd" d="M211.413 58.3636C205.826 58.3636 201.298 62.8922 201.298 68.4785C201.298 74.0648 205.826 78.5934 211.413 78.5934C216.999 78.5934 221.528 74.0648 221.528 68.4785C221.528 62.8922 216.999 58.3636 211.413 58.3636ZM195.903 68.4785C195.903 59.9125 202.847 52.9684 211.413 52.9684C219.979 52.9684 226.923 59.9125 226.923 68.4785C226.923 77.0445 219.979 83.9886 211.413 83.9886C202.847 83.9886 195.903 77.0445 195.903 68.4785Z" fill="#7AD1FF"/>
<path fill-rule="evenodd" clip-rule="evenodd" d="M85.0849 142.329C80.7795 142.329 77.2893 145.819 77.2893 150.125C77.2893 154.43 80.7795 157.92 85.0849 157.92C89.3904 157.92 92.8806 154.43 92.8806 150.125C92.8806 145.819 89.3904 142.329 85.0849 142.329ZM71.894 150.125C71.894 142.84 77.7998 136.934 85.0849 136.934C92.3701 136.934 98.2758 142.84 98.2758 150.125C98.2758 157.41 92.3701 163.316 85.0849 163.316C77.7998 163.316 71.894 157.41 71.894 150.125Z" fill="#7AD1FF"/>
<path fill-rule="evenodd" clip-rule="evenodd" d="M36.042 99.2047C30.4557 99.2047 25.9271 103.733 25.9271 109.32C25.9271 114.906 30.4557 119.434 36.042 119.434C41.6283 119.434 46.1568 114.906 46.1568 109.32C46.1568 103.733 41.6283 99.2047 36.042 99.2047ZM20.5319 109.32C20.5319 100.754 27.476 93.8094 36.042 93.8094C44.608 93.8094 51.5521 100.754 51.5521 109.32C51.5521 117.886 44.608 124.83 36.042 124.83C27.476 124.83 20.5319 117.886 20.5319 109.32Z" fill="#7AD1FF"/>
<path fill-rule="evenodd" clip-rule="evenodd" d="M225.826 96.0008C222.894 96.0008 220.516 98.3783 220.516 101.311C220.516 104.244 222.894 106.621 225.826 106.621C228.759 106.621 231.137 104.244 231.137 101.311C231.137 98.3783 228.759 96.0008 225.826 96.0008ZM215.121 101.311C215.121 95.3986 219.914 90.6056 225.826 90.6056C231.739 90.6056 236.532 95.3986 236.532 101.311C236.532 107.223 231.739 112.016 225.826 112.016C219.914 112.016 215.121 107.223 215.121 101.311Z" fill="#7AD1FF"/>
<path fill-rule="evenodd" clip-rule="evenodd" d="M40.8471 59.1657C37.9144 59.1657 35.537 61.5432 35.537 64.4759C35.537 67.4086 37.9144 69.7861 40.8471 69.7861C43.7799 69.7861 46.1573 67.4086 46.1573 64.4759C46.1573 61.5432 43.7799 59.1657 40.8471 59.1657ZM30.1417 64.4759C30.1417 58.5635 34.9347 53.7705 40.8471 53.7705C46.7596 53.7705 51.5526 58.5635 51.5526 64.4759C51.5526 70.3883 46.7596 75.1813 40.8471 75.1813C34.9347 75.1813 30.1417 70.3883 30.1417 64.4759Z" fill="#7AD1FF"/>
<path fill-rule="evenodd" clip-rule="evenodd" d="M213.014 124.829C210.082 124.829 207.704 127.206 207.704 130.139C207.704 133.072 210.082 135.449 213.014 135.449C215.947 135.449 218.325 133.072 218.325 130.139C218.325 127.206 215.947 124.829 213.014 124.829ZM202.309 130.139C202.309 124.227 207.102 119.434 213.014 119.434C218.927 119.434 223.72 124.227 223.72 130.139C223.72 136.052 218.927 140.845 213.014 140.845C207.102 140.845 202.309 136.052 202.309 130.139Z" fill="#7AD1FF"/>
</svg>
