<svg width="256" height="256" viewBox="0 0 256 256" fill="none" xmlns="http://www.w3.org/2000/svg">
<path fill-rule="evenodd" clip-rule="evenodd" d="M128 25.2683C71.2628 25.2683 25.2683 71.2628 25.2683 128C25.2683 184.737 71.2628 230.732 128 230.732C184.737 230.732 230.732 184.737 230.732 128C230.732 71.2628 184.737 25.2683 128 25.2683ZM20 128C20 68.3532 68.3532 20 128 20C187.647 20 236 68.3532 236 128C236 187.647 187.647 236 128 236C68.3532 236 20 187.647 20 128Z" fill="#A3E2FF"/>
<path fill-rule="evenodd" clip-rule="evenodd" d="M134.153 82.4468C135.182 81.4181 136.849 81.4181 137.878 82.4468L145.953 90.5219C146.447 91.0159 146.725 91.6859 146.725 92.3845C146.725 93.0831 146.447 93.7531 145.953 94.2471L137.878 102.322C136.849 103.351 135.182 103.351 134.153 102.322C133.124 101.293 133.124 99.6256 134.153 98.5969L137.731 95.0186H95.7208C94.266 95.0186 93.0867 93.8393 93.0867 92.3845C93.0867 90.9297 94.266 89.7503 95.7208 89.7503H137.731L134.153 86.1721C133.124 85.1434 133.124 83.4755 134.153 82.4468Z" fill="#A3E2FF"/>
<path fill-rule="evenodd" clip-rule="evenodd" d="M134.153 162.125C135.182 161.097 136.849 161.097 137.878 162.125L145.953 170.2C146.447 170.694 146.725 171.364 146.725 172.063C146.725 172.762 146.447 173.432 145.953 173.926L137.878 182.001C136.849 183.029 135.182 183.029 134.153 182.001C133.124 180.972 133.124 179.304 134.153 178.275L137.731 174.697H91.344C89.8892 174.697 88.7098 173.518 88.7098 172.063C88.7098 170.608 89.8892 169.429 91.344 169.429H137.731L134.153 165.851C133.124 164.822 133.124 163.154 134.153 162.125Z" fill="#A3E2FF"/>
<path fill-rule="evenodd" clip-rule="evenodd" d="M109.301 159.549C109.301 161.004 108.122 162.183 106.667 162.183L95.2474 162.183C94.5488 162.183 93.8788 161.906 93.3848 161.412C92.8908 160.918 92.6133 160.248 92.6133 159.549L92.6133 148.129C92.6133 146.674 93.7926 145.495 95.2474 145.495C96.7022 145.495 97.8816 146.674 97.8816 148.129L97.8816 153.19L159.954 91.1174C160.982 90.0887 162.65 90.0887 163.679 91.1174C164.708 92.1461 164.708 93.8139 163.679 94.8426L101.607 156.915L106.667 156.915C108.122 156.915 109.301 158.094 109.301 159.549Z" fill="#A3E2FF"/>
<path d="M194.76 92.3374L171.149 68.7269L147.539 92.3374L171.149 115.948L194.76 92.3374Z" fill="#018BFF"/>
<path d="M66.4122 182.909L84.9626 145.067L103.513 182.909H66.4122Z" fill="#018BFF"/>
<path d="M84.9627 111.675C95.6176 111.675 104.255 103.038 104.255 92.3832C104.255 81.7283 95.6176 73.0908 84.9627 73.0908C74.3079 73.0908 65.6704 81.7283 65.6704 92.3832C65.6704 103.038 74.3079 111.675 84.9627 111.675Z" fill="#018BFF"/>
</svg>
